<svg version="1.2" xmlns="http://www.w3.org/2000/svg" viewBox="0 0 1533 1193" width="1533" height="1193"><style>.a{fill:#ff6a25}</style><path class="a" d="m1361.7 461.2h-1113.2v191.6h1062.6c40.6 0 46.7 40.8 46.7 40.8v291.8c0 15.3-14 32.1-42.8 32.1h-1089.8c-30.5 0-40.8-20.7-40.8-36v-535.9c1.3-47 38.9-51 38.9-51h1309.5v-394.4h-1359.1c-80.6 0-173.1 97.7-173.1 197.4v794.7c0 89.5 78 200.2 171.1 200.2h1203.6c0 0 121.5-11.6 156.5-179.9l0.6-374.7c-31.5-159-170.7-176.7-170.7-176.7zm-571.2 513.2h52.5l-87.5-252.3h-26.2l-86 252.3h26.2l26.3-75.2h70.8zm451.4-249.4h-116v250.2h101.4c0 0 89.7-6.6 102-126.9 0 0 8.1-106.5-87.4-123.3zm-14.6 227.6h-56.9v-204.3h64.8c0.8 0.4 43.7 17.5 44.9 89.9 0 0 5.4 89.4-52.8 114.4zm-180.8-226.9v164.4l-138.8-164.3-32.6-0.1v249.5h29.2v-172.4l139.2 172.4h25.6v-249.5zm-505.3 222.5v-221.7h-48.2v246.5h8.8 39.4 70v-24.8zm-142.2-82.4v80.9c-24.6 11.1-103.5 36.6-110.9-88.2 0 0-8.7-68.6 42.3-108.7 0 0 52.5-33.6 99.2 25.5l13.1-35c0 0-105.7-58.3-179.4 21.1 0 0-76.5 94.9 11.7 190.4 0 0 54.7 56.2 168.4 11v-97zm305.1 9.6l28.9-82.6 26.2 82.6z"/></svg>